<?xml version="1.0" encoding="utf-8"?>
<!-- Generator: Adobe Illustrator 27.5.0, SVG Export Plug-In . SVG Version: 6.00 Build 0)  -->
<svg version="1.1" id="Layer_1" xmlns="http://www.w3.org/2000/svg" xmlns:xlink="http://www.w3.org/1999/xlink" x="0px" y="0px"
	 viewBox="0 0 48 48" style="enable-background:new 0 0 48 48;" xml:space="preserve">
<style type="text/css">
	.st0{fill:#D8B6FF;}
</style>
<path class="st0" d="M14.4,42C14.1,41.8,14,41.4,14,41c0-0.4,0.2-0.8,0.5-1.1l15.9-15.9l-16-15.9c-0.3-0.3-0.5-0.7-0.5-1.1
	c0-0.4,0.2-0.8,0.5-1.1c0.3-0.3,0.7-0.4,1.1-0.4c0.4,0,0.8,0.1,1.1,0.4l16.9,16.9c0.1,0.2,0.3,0.4,0.4,0.6c0.1,0.2,0.1,0.4,0.1,0.6
	c0,0.3,0,0.5-0.1,0.7c-0.1,0.2-0.2,0.4-0.4,0.5l-17,17c-0.3,0.3-0.7,0.5-1.1,0.5C15.1,42.5,14.8,42.4,14.4,42z"/>
</svg>
