<?xml version="1.0" encoding="utf-8"?>
<!-- Generator: Adobe Illustrator 27.5.0, SVG Export Plug-In . SVG Version: 6.00 Build 0)  -->
<svg version="1.1" id="Layer_1" xmlns="http://www.w3.org/2000/svg" xmlns:xlink="http://www.w3.org/1999/xlink" x="0px" y="0px"
	 viewBox="0 0 48 48" style="enable-background:new 0 0 48 48;" xml:space="preserve">
<style type="text/css">
	.st0{fill:#D8B6FF;}
</style>
<path class="st0" d="M17.7,36.8c-0.5-1.4-0.8-2.8-1.1-4.2c-0.3-1.4-0.5-2.9-0.6-4.3l-3.1,2c-0.2,0.1-0.3,0.3-0.4,0.4
	c-0.1,0.2-0.1,0.4-0.1,0.6v7.3c0,0.1,0,0.2,0.1,0.3c0.1,0.1,0.2,0.1,0.3,0C12.8,38.9,17.7,36.8,17.7,36.8z M23.6,9.3
	c-2.2,2.7-3.7,5.2-4.6,7.5c-0.8,2.3-1.2,5-1.2,7.9c0,1.8,0.2,3.6,0.6,5.5c0.4,1.9,0.9,3.9,1.5,6h8.3c0.6-2.1,1.1-4.1,1.5-6
	c0.4-1.9,0.6-3.7,0.6-5.5c0-3-0.4-5.6-1.2-7.9c-0.8-2.3-2.3-4.8-4.5-7.5c-0.1-0.1-0.2-0.2-0.2-0.2c-0.1,0-0.1,0-0.3,0
	c-0.1,0-0.2,0-0.3,0C23.7,9.2,23.6,9.2,23.6,9.3z M24,24.6c-0.7,0-1.4-0.2-1.8-0.7c-0.5-0.5-0.7-1.1-0.7-1.8c0-0.7,0.2-1.3,0.7-1.8
	c0.5-0.5,1.1-0.7,1.8-0.7c0.7,0,1.4,0.2,1.8,0.7c0.5,0.5,0.7,1.1,0.7,1.8c0,0.7-0.2,1.4-0.7,1.8C25.3,24.3,24.7,24.6,24,24.6z
	 M30.3,36.9l4.9,2c0.1,0.1,0.2,0,0.3,0c0.1-0.1,0.1-0.2,0.1-0.3v-7.2c0-0.2,0-0.4-0.1-0.6c-0.1-0.2-0.2-0.3-0.4-0.5l-3-2
	c-0.2,1.4-0.4,2.9-0.7,4.3C31.1,34.1,30.7,35.5,30.3,36.9z M25.2,6.6c2.3,2.5,4.1,5.3,5.3,8.3c1.2,3.1,1.8,6.3,1.8,9.6
	c0,0.2,0,0.4,0,0.7c0,0.3,0,0.5,0,0.7l3.9,2.6c0.4,0.3,0.8,0.8,1.1,1.3c0.3,0.5,0.4,1,0.4,1.5v8.4c0,0.6-0.2,1.1-0.7,1.4
	c-0.5,0.3-1,0.4-1.6,0.2l-7.1-2.9h-8.8l-7.1,2.9c-0.6,0.2-1.1,0.1-1.6-0.2c-0.5-0.3-0.7-0.8-0.7-1.4v-8.4c0-0.5,0.1-1,0.4-1.5
	c0.3-0.5,0.6-0.9,1.1-1.3l3.9-2.6v-1.4c0-3.4,0.6-6.6,1.8-9.6c1.2-3.1,3-5.8,5.4-8.3c0.1-0.2,0.3-0.3,0.5-0.4C23.6,6.1,23.8,6,24,6
	c0.2,0,0.4,0,0.7,0.1C24.9,6.3,25.1,6.4,25.2,6.6z"/>
</svg>
